{
	"buffers":[{
		"uri":"data:application/octet-stream;base64,",
		"byteLength":44448
	},
	{
		"uri":"data:application/octet-stream;base64,",
		"byteLength":148080
	},
	{
		"uri":"data:application/octet-stream;base64,",
		"byteLength":122544
	},
	{
		"uri":"data:application/octet-stream;base64,",
		"byteLength":49560
	},
	{
		"uri":"data:application/octet-stream;base64,",
		"byteLength":50192
	}],
	"asset":{
		"version":"2.0",
		"generator":"Created using the official Cinema 4D glTF Exporter 1.000x284978"
	},
	"scenes":[{
		"nodes":[0,
		9]
	}],
	"bufferViews":[{
		"buffer":0,
		"byteOffset":0,
		"byteLength":9024,
		"target":34963
	},
	{
		"buffer":0,
		"byteOffset":9024,
		"byteLength":35424,
		"target":34962,
		"byteStride":32
	},
	{
		"buffer":1,
		"byteOffset":0,
		"byteLength":30192,
		"target":34963
	},
	{
		"buffer":1,
		"byteOffset":30192,
		"byteLength":117888,
		"target":34962,
		"byteStride":32
	},
	{
		"buffer":2,
		"byteOffset":0,
		"byteLength":24528,
		"target":34963
	},
	{
		"buffer":2,
		"byteOffset":24528,
		"byteLength":98016,
		"target":34962,
		"byteStride":32
	},
	{
		"buffer":3,
		"byteOffset":0,
		"byteLength":9816,
		"target":34963
	},
	{
		"buffer":3,
		"byteOffset":9816,
		"byteLength":39744,
		"target":34962,
		"byteStride":32
	},
	{
		"buffer":4,
		"byteOffset":0,
		"byteLength":10032,
		"target":34963
	},
	{
		"buffer":4,
		"byteOffset":10032,
		"byteLength":40160,
		"target":34962,
		"byteStride":32
	}],
	"nodes":[{
		"name":"Logo",
		"children":[1]
	},
	{
		"name":"Null.1",
		"translation":[-36.15636444091797,
		-59.92332077026367,
		50.52016830444336],
		"rotation":[0.0,
		0.0,
		0.0,
		-1.0],
		"scale":[1.0,
		1.0,
		1.0],
		"children":[2,
		6]
	},
	{
		"name":"Gray",
		"translation":[91.16938781738281,
		91.75603485107422,
		-0.44172146916389468],
		"rotation":[0.0,
		0.0,
		0.0,
		-1.0],
		"scale":[1.0,
		1.0,
		1.0],
		"children":[3,
		4,
		5]
	},
	{
		"name":"Extrude",
		"translation":[-38.50178909301758,
		66.82621765136719,
		0.42251619696617129],
		"rotation":[0.0,
		0.0,
		0.0,
		-1.0],
		"scale":[1.0,
		1.0,
		1.0],
		"mesh":0
	},
	{
		"name":"Extrude.1",
		"translation":[6.200425148010254,
		-89.91144561767578,
		0.0],
		"rotation":[0.0,
		0.0,
		0.0,
		-1.0],
		"scale":[1.0,
		1.0,
		1.0],
		"mesh":1
	},
	{
		"name":"Extrude.2",
		"translation":[32.301361083984378,
		23.085227966308595,
		-0.42251619696617129],
		"rotation":[0.0,
		0.0,
		0.0,
		-1.0],
		"scale":[1.0,
		1.0,
		1.0],
		"mesh":2
	},
	{
		"name":"Red",
		"translation":[90.91059875488281,
		75.77435302734375,
		-0.44172146916389468],
		"rotation":[0.0,
		0.0,
		0.0,
		-1.0],
		"scale":[1.0,
		1.0,
		1.0],
		"children":[7,
		8]
	},
	{
		"name":"Extrude",
		"translation":[-4.2515692710876469,
		-26.856185913085939,
		0.21125809848308564],
		"rotation":[0.0,
		0.0,
		0.0,
		-1.0],
		"scale":[1.0,
		1.0,
		1.0],
		"mesh":3
	},
	{
		"name":"Extrude.1",
		"translation":[4.2515692710876469,
		26.856185913085939,
		-0.21125809848308564],
		"rotation":[0.0,
		0.0,
		0.0,
		-1.0],
		"scale":[1.0,
		1.0,
		1.0],
		"mesh":4
	},
	{
		"name":"Camera.1",
		"translation":[0.0,
		6.0,
		1037.0],
		"rotation":[-0.0028067734092473985,
		-0.00006840850983280689,
		-1.920079313322276e-7,
		0.9999960660934448],
		"camera":0,
		"scale":[1.0,
		1.0,
		1.0]
	}],
	"meshes":[{
		"name":"Extrude",
		"primitives":[{
			"attributes":{
				"POSITION":1,
				"NORMAL":2,
				"TEXCOORD_0":3
			},
			"indices":0,
			"material":0
		}]
	},
	{
		"name":"Extrude.1",
		"primitives":[{
			"attributes":{
				"POSITION":5,
				"NORMAL":6,
				"TEXCOORD_0":7
			},
			"indices":4,
			"material":0
		}]
	},
	{
		"name":"Extrude.2",
		"primitives":[{
			"attributes":{
				"POSITION":9,
				"NORMAL":10,
				"TEXCOORD_0":11
			},
			"indices":8,
			"material":0
		}]
	},
	{
		"name":"Extrude",
		"primitives":[{
			"attributes":{
				"POSITION":13,
				"NORMAL":14,
				"TEXCOORD_0":15
			},
			"indices":12,
			"material":1
		}]
	},
	{
		"name":"Extrude.1",
		"primitives":[{
			"attributes":{
				"POSITION":17,
				"NORMAL":18,
				"TEXCOORD_0":19
			},
			"indices":16,
			"material":1
		}]
	}],
	"cameras":[{
		"type":"perspective",
		"perspective":{
			"znear":0.009999999776482582,
			"zfar":10000000000.0,
			"aspectRatio":1.7777777910232545,
			"yfov":0.3995964825153351
		}
	}],
	"accessors":[{
		"min":[0],
		"bufferView":0,
		"type":"SCALAR",
		"componentType":5123,
		"count":4512,
		"byteOffset":0,
		"max":[1106]
	},
	{
		"min":[-44.489627838134769,
		-30.875370025634767,
		-70.69409942626953],
		"bufferView":1,
		"type":"VEC3",
		"componentType":5126,
		"count":1107,
		"byteOffset":0,
		"max":[11.467153549194336,
		29.638221740722658,
		0.694100022315979]
	},
	{
		"min":[-0.999902069568634,
		-0.5834410190582275,
		-1.0],
		"bufferView":1,
		"type":"VEC3",
		"componentType":5126,
		"count":1107,
		"byteOffset":12,
		"max":[0.9999019503593445,
		0.9995806217193604,
		1.0]
	},
	{
		"min":[0.0,
		0.0],
		"bufferView":1,
		"type":"VEC2",
		"componentType":5126,
		"count":1107,
		"byteOffset":24,
		"max":[1.0,
		1.0]
	},
	{
		"min":[0],
		"bufferView":2,
		"type":"SCALAR",
		"componentType":5123,
		"count":15096,
		"byteOffset":0,
		"max":[3683]
	},
	{
		"min":[-176.11044311523438,
		-72.55130767822266,
		-70.69409942626953],
		"bufferView":3,
		"type":"VEC3",
		"componentType":5126,
		"count":3684,
		"byteOffset":0,
		"max":[53.68354797363281,
		72.58300018310547,
		0.694100022315979]
	},
	{
		"min":[-0.9999781847000122,
		-0.9999939203262329,
		-1.0],
		"bufferView":3,
		"type":"VEC3",
		"componentType":5126,
		"count":3684,
		"byteOffset":12,
		"max":[0.9999781847000122,
		0.9999066591262817,
		1.0]
	},
	{
		"min":[0.0,
		0.0],
		"bufferView":3,
		"type":"VEC2",
		"componentType":5126,
		"count":3684,
		"byteOffset":24,
		"max":[1.0,
		1.0]
	},
	{
		"min":[0],
		"bufferView":4,
		"type":"SCALAR",
		"componentType":5123,
		"count":12264,
		"byteOffset":0,
		"max":[3062]
	},
	{
		"min":[-257.7934265136719,
		-54.35670852661133,
		-70.69409942626953],
		"bufferView":5,
		"type":"VEC3",
		"componentType":5126,
		"count":3063,
		"byteOffset":0,
		"max":[83.16464233398438,
		53.98541259765625,
		0.694100022315979]
	},
	{
		"min":[-0.9999865889549255,
		-0.9998321533203125,
		-1.0],
		"bufferView":5,
		"type":"VEC3",
		"componentType":5126,
		"count":3063,
		"byteOffset":12,
		"max":[0.9999865889549255,
		0.9999973773956299,
		1.0]
	},
	{
		"min":[0.0,
		0.0],
		"bufferView":5,
		"type":"VEC2",
		"componentType":5126,
		"count":3063,
		"byteOffset":24,
		"max":[1.0,
		1.0]
	},
	{
		"min":[0],
		"bufferView":6,
		"type":"SCALAR",
		"componentType":5123,
		"count":4908,
		"byteOffset":0,
		"max":[1241]
	},
	{
		"min":[-131.0389862060547,
		-23.650606155395509,
		-70.69409942626953],
		"bufferView":7,
		"type":"VEC3",
		"componentType":5126,
		"count":1242,
		"byteOffset":0,
		"max":[30.03365707397461,
		26.77696418762207,
		0.694100022315979]
	},
	{
		"min":[-0.9999130368232727,
		-0.9998847246170044,
		-1.0],
		"bufferView":7,
		"type":"VEC3",
		"componentType":5126,
		"count":1242,
		"byteOffset":12,
		"max":[0.9999131560325623,
		0.999730110168457,
		1.0]
	},
	{
		"min":[0.0,
		0.0],
		"bufferView":7,
		"type":"VEC2",
		"componentType":5126,
		"count":1242,
		"byteOffset":24,
		"max":[1.0,
		1.0]
	},
	{
		"min":[0],
		"bufferView":8,
		"type":"SCALAR",
		"componentType":5123,
		"count":5016,
		"byteOffset":0,
		"max":[1254]
	},
	{
		"min":[-162.58706665039063,
		-24.189050674438478,
		-70.69409942626953],
		"bufferView":9,
		"type":"VEC3",
		"componentType":5126,
		"count":1255,
		"byteOffset":0,
		"max":[44.57545852661133,
		25.074434280395509,
		0.694100022315979]
	},
	{
		"min":[-0.9994968771934509,
		-0.9999595284461975,
		-1.0],
		"bufferView":9,
		"type":"VEC3",
		"componentType":5126,
		"count":1255,
		"byteOffset":12,
		"max":[0.9994968771934509,
		0.9999983310699463,
		1.0]
	},
	{
		"min":[0.0,
		0.0],
		"bufferView":9,
		"type":"VEC2",
		"componentType":5126,
		"count":1255,
		"byteOffset":24,
		"max":[1.0,
		1.0]
	}],
	"materials":[{
		"pbrMetallicRoughness":{
			"baseColorFactor":[0.44313725490196079,
			0.4470588235294118,
			0.4588235294117647,
			1.0],
			"metallicFactor":0.66,
			"roughnessFactor":0.44
		},
		"emissiveFactor":[0.0,
		0.0,
		0.0],
		"alphaMode":"OPAQUE",
		"doubleSided":false,
		"name":"Gray"
	},
	{
		"pbrMetallicRoughness":{
			"baseColorFactor":[0.7294117647058823,
			0.14117647058823533,
			0.1725490196078428,
			1.0],
			"metallicFactor":1.0,
			"roughnessFactor":0.16
		},
		"emissiveFactor":[0.0,
		0.0,
		0.0],
		"alphaMode":"OPAQUE",
		"doubleSided":false,
		"name":"Red"
	}]
}